<?xml version="1.0" encoding="UTF-8"?>
<svg id="Layer_2" data-name="Layer 2" xmlns="http://www.w3.org/2000/svg" viewBox="0 0 981.33 711.35">
  <g id="Layer_6" data-name="Layer 6">
    <g>
      <path d="M189.97,273.37c.81-11.84,1.68-23.67,2.41-35.51.32-5.24.87-5.62,6.14-4.85,30.55,4.39,61.13,8.58,91.67,13.06,22.26,3.26,44.49,6.76,66.7,10.36,7.84,1.27,13.94-.78,17.16-7-6.4-1.05-12.66-1.91-18.86-3.12-27.45-5.33-54.92-10.55-82.31-16.2-25.49-5.26-50.87-11.13-76.34-16.47-4.25-.89-6.2-2.58-6.95-6.98-2.49-14.6-7.44-28.27-16.92-39.95-6.22-7.66-13.53-13.66-23.65-15.49-6.74-1.22-11.78,1.13-16.14,6.21-12.97,15.12-18.03,33.14-19.09,52.47-.55,10.1-.13,20.25-.16,30.39,0,.74-.15,1.49-1.42,2.66-1.24-2.77-2.82-5.43-3.7-8.32-6.43-21.13-7.1-42.37-.41-63.56,2.98-9.46,4.39-19.02,4.44-28.93.02-4.57,1.13-9.22,2.4-13.66.39-1.35,3-3.05,4.48-2.93,5.91.43,11.8,1.35,17.64,2.4,43.04,7.74,86.04,15.57,129.08,23.33,40.81,7.35,81.63,14.64,122.45,21.98,1.85.34,3.66.94,6.43,1.67-19.24,31.6-13.47,64.28-5.97,97.02.4,1.71,1.49,3.25,2.25,4.87.4-.12.8-.24,1.2-.36-.49-6.3-.96-12.6-1.5-18.89-1.4-16.74-2.21-33.42,4.61-49.4,5.28-12.39,12.85-22.96,23.94-30.82,15.1-10.71,30.83-10.33,45.34,1.15,13.17,10.42,21.94,24.21,29.4,38.94,8.91,17.6,14.4,36.41,19.22,55.44.26,1.01.51,2.03,1.33,2.9-1.7-29.11-8.24-57.22-18.29-85.87,11.75,1.28,22.55,2.47,33.36,3.65.14-.41.28-.82.41-1.23-14.18-6.37-28.45-12.71-34.24-28.73-.76-2.11-.11-4.75-.11-8.33,6.64,4.7,11.89,8.58,17.3,12.22,15.53,10.45,32.86,15.25,51.4,15.72,19.61.51,39.21.86,58.82,1.01,5.28.04,10.56-.89,15.83-1.39,4.82-.46,7.84-3.16,8.27-7.9.46-5.09.71-10.27.28-15.33-.41-4.68-3.28-7.74-8.2-8.89-16.43-3.82-32.72-8.45-49.29-11.51-8.36-1.54-17.21-.27-25.84-.49-3.95-.11-8.16.03-11.78-1.27-25.65-9.2-51.84-16.22-78.77-20.33-16.21-2.47-32.48-4.53-48.73-6.73-2.19-.3-4.4-.41-6.61-.62-.15.42-.31.85-.46,1.27,1.51.72,2.93,1.74,4.53,2.12,30.12,7.37,60.26,14.66,90.38,22.01,3.19.78,6.31,1.85,9.46,2.79-.02.41-.03.82-.05,1.23-1.07.5-2.13,1.03-3.22,1.51-6.46,2.82-12.85,5.87-19.44,8.37-7.15,2.71-14.47,4.94-21.75,7.3-4.82,1.56-8.69-.28-12.34-3.42-9.81-8.42-21.15-11.83-34.02-10.02-7.82,1.1-14.16,5.13-19.76,10.31-2.5,2.31-4.86,3.07-8.21,2.59-28.31-4.12-56.65-8.05-84.98-12.11-39.94-5.72-79.88-11.5-119.8-17.28-20.69-2.99-41.37-6.02-62.04-9.03-4.85-.7-9.7-1.44-15.51-2.3,3.44-6.95,7.37-12.07,13.21-14.88,15.8-7.6,28.29-19.12,40.57-31.35,29.99-29.88,66.43-48.56,107.07-59.46,20.94-5.6,42.24-8.75,63.86-9,28.95-.35,57.92-.84,86.84.11,40.8,1.33,81.61,3.24,121.83,11.12,15.82,3.1,28.81,12.04,42.15,20.22-.22.46-.44.94-.67,1.4-2.38-1.1-4.83-2.08-7.15-3.33-11.25-6.04-22.94-11.13-35.55-13.21-10.92-1.8-22.02-2.61-33.05-3.76-33.95-3.54-68.01-4.67-102.1-3.74-13.13.36-26.24,2.18-39.33,3.58-2.98.32-5.92,1.48-8.76,2.57-6.16,2.36-7.01,4.3-4.08,10,9.49,18.41,19.22,36.7,28.61,55.15,3.88,7.62,10.26,10.27,18.13,10.39,32.14.52,64.28,1.29,96.42,1.3,27.97,0,55.95-.8,83.92-1.43,25.06-.56,50.12-1.35,75.18-2.06.91-.03,1.8-.17,2.71-.26.32-.44.63-.89.95-1.33-6.09-5.76-12.17-11.51-19.02-17.99,10.12-.72,18.96.71,26.62,4.89,3.85,2.1,6.8,7.36,8.27,11.82,1.23,3.73,2.75,4.6,6.1,5.06,22.93,3.05,45.92,5.73,68.71,9.6,20.28,3.44,40.3,8.42,58.97,17.52,7.32,3.57,14.64,7.39,18.72,13.85-6.99,5.42-13.62,10.59-20.27,15.73-3.15,2.43-3.36,5.49-2.33,9.06,3.41,11.86,13.32,17.18,25.84,13.58,4.31-1.24,8.59-2.72,12.75-4.41,3.29-1.33,5.98-.53,7.49,2.25,2.89,5.33,6.18,10.68,7.69,16.45,8.51,32.38,8.31,64.8-.3,97.24-1.83,6.9-5.48,11.17-12.33,12.37-14.22,2.49-28.47,4.86-42.77,6.99-7.35,1.09-14.81,1.55-22.21,2.31.03.7.06,1.4.09,2.1,4.22,0,8.43.05,12.65,0,11.24-.15,22.48-.39,33.73-.46,1.35,0,2.71.77,4.57,1.34-4.92,9.2-12.29,15.48-19.72,21.85-10.83,9.26-23.43,13.04-37.33,14.76-20.82,2.59-40.31-.54-57.69-12.26-6.78-4.57-12.21-11.29-17.82-17.44-2.29-2.51-4.4-3.91-7.77-3.69-16.2,1.03-32.41,1.98-48.61,2.96-17.48,1.07-34.95,2.52-52.44,3.14-19.43.68-38.9.74-58.35.73-4.02,0-5.41,2.32-6.33,5.07-3.88,11.65-9.45,22.31-17.98,31.19-4.69,4.88-9.58,9.68-14.95,13.76-2.79,2.11-6.74,3.03-10.32,3.71-5.77,1.09-11.64,1.85-17.49,2.21-37.54,2.29-63.78-16.74-75.62-51.6-1.66-4.89-3.04-9.89-4.86-14.72-.41-1.1-2.12-2.34-3.3-2.42-26.27-1.74-52.57-3.25-78.84-4.97-22.42-1.46-44.83-3.11-67.25-4.68-6.09-.42-12.19-.67-18.25-1.36-3.56-.41-5.18,1.04-6.53,4.09-2.79,6.3-5.69,12.58-9.02,18.6-1.84,3.33-4.45,6.31-7.05,9.13-6.97,7.56-14.63,13.01-26.02,11.45-7.57-1.03-15.42-.43-23.13-.14-14.66.54-24.91-6.75-32-18.58-8.94-14.93-11.13-31.73-11.14-48.78,0-7.21,1.26-14.41,1.66-21.62.23-4.15.07-8.35-.26-12.49-1.17-14.79-.33-29.28,6.41-42.84,6.77-13.66,17.68-16.83,31.19-9.52,10.27,5.55,14.77,15.2,18.91,25.27,7.35,17.89,9.37,37,12.95,55.75.68,3.55,1.5,7.06,2.24,10.6.52-.07,1.05-.14,1.57-.2v-.03ZM306.03,95.7c.08-.54.15-1.09.23-1.63,1.51-.11,3.03-.26,4.55-.3,10.12-.26,20.25-.44,30.38-.76,1.91-.06,3.9-.33,5.67-.97,3.48-1.26,3.98-4.1.8-5.94-2.37-1.38-5.5-2.48-8.14-2.22-12.44,1.23-24.84,2.93-37.24,4.55-4.26.56-6.77-.83-6.52-5.06.19-3.13,1.43-6.74,3.44-9.05,2.31-2.66,5.76-4.71,9.11-6.04,13.64-5.42,27.88-7.52,42.55-6.45,5.95.43,10.32,2.76,12.43,8.82,1.24,3.55,3.29,6.81,4.98,10.2.39-.18.77-.36,1.15-.54-.31-1.37-.45-2.81-.96-4.1-5.9-15.1-11.47-30.34-17.93-45.2-4.38-10.09-12.85-15.8-23.97-15.79-9.44,0-19.01.55-28.3,2.14-26.18,4.47-50.06,15.17-72.64,28.8-9.2,5.56-18.52,11.18-26.73,18.04-12.25,10.24-9.22,25,5.71,30.61,3.71,1.39,7.74,2.36,11.69,2.61,14.12.9,28.25,1.36,42.38,2.06,32.58,1.64,65.16,3.33,97.74,4.97,1.31.07,2.64-.16,4.76-.31-3.27-3.92-6.44-5.63-10.85-5.63-11.73,0-23.48-.14-35.2-.58-3.05-.12-6.06-1.47-9.08-2.25h0ZM503.32,276.54c1-13.84-2.01-27.47-9.11-40.12-6.25-11.14-14.76-20.06-27.37-23.61-16.86-4.74-30.42,2.05-41.32,14.28-23.67,26.56-25.54,74.9-4.34,103.32,6.6,8.86,14.9,15.51,26.23,17.37,16.57,2.74,29.1-4.34,39.14-16.69,12.73-15.67,17.83-33.87,16.78-54.55h0ZM757.21,261.17c0,.68.03,1.36.04,2.04-31.46,3.57-62.91,7.13-94.37,10.7.03.69.06,1.37.09,2.05,27.04.29,54.07.59,81.11.88.08.61.16,1.21.24,1.81-1.84.55-3.66,1.4-5.54,1.6-24.61,2.67-49.22,5.24-73.84,7.87-2.37.25-4.71.83-7.06,1.24.96,1.48,1.8,2,2.65,2.01,9.6.11,19.22.49,28.8.13,28.56-1.09,57.12-2.23,85.65-3.87,16.02-.92,32.01-2.61,47.95-4.46,10.57-1.23,13.26-3.82,14.7-14.45,1.02-7.59,1.65-15.49.73-23.04-1.43-11.72-4.16-23.3-6.67-34.87-.84-3.88-3.55-6.51-7.92-6.49-11.25.03-22.51-.11-33.76.26-29.86.96-59.72,2.12-89.57,3.31-5.44.21-10.86.95-16.29,1.43,1.68,1.08,3.26,1.08,4.83,1.08,34.73,0,69.46,0,104.19.07,2.63,0,5.27.61,7.9.93v1.7c-35.63,3.87-71.27,7.74-106.9,11.61.05.66.09,1.3.14,1.96h95.13c.02.46.05.93.07,1.39-35.3,4.51-70.59,9.02-105.88,13.53.07.71.14,1.42.19,2.13,30.85-.54,61.69-1.07,92.54-1.61.06.8.13,1.61.18,2.41-36.34,4.84-72.68,9.69-109.03,14.53.06.71.13,1.42.18,2.13h89.52ZM719.25,152.9c-12.05,0-24.1-.05-36.16.02-6.97.04-15.49,9.17-15.13,16.07.38,7.33,7.95,16,15.21,17.31,27.42,4.95,54.98,4.96,82.55,1.68,10.19-1.22,20.4-2.81,30.39-5.13,14.51-3.39,21.08-19.06,13.73-31.33-1.64-2.74-3.5-4.11-7.02-3.49-27.65,4.86-55.61,4.87-83.56,4.89h0ZM123.45,255.39c-1.54,12.17-3.51,24.41.29,36.26,2.37,7.4,5.14,14.92,9.23,21.45,5.44,8.68,13.37,9.38,21.33,3,7.76-6.21,10.96-15.27,13.85-24.25,5.27-16.42,4.72-33.42,2.53-50.13-1.02-7.84-4.84-15.54-8.54-22.72-3.05-5.93-8.64-10.17-15.87-8.33-7.79,1.99-12.13,8.03-14.73,14.66,4.81-2.59,9.47-6.34,14.72-7.58,6.56-1.55,11.67,2.42,13.09,8.32-1.21-.27-2.27-.44-3.28-.76-7.84-2.43-12.76-1.12-17.82,5.37-2.25,2.88-4.07,6.18-5.62,9.49-4.74,10.15-5.31,21.07-5.5,32.04-.03,1.55-.15,3.11-.23,4.66h-2.03c-.47-7.16-.95-14.33-1.42-21.49h0ZM688.23,128.45c0,.42.02.85.04,1.27,1.68.2,3.36.59,5.05.6,23.47.09,46.95.5,70.41,0,9.38-.2,18.79-2.12,28.03-3.98,3.76-.75,7.5-2.96,10.59-5.36,3.39-2.62,2.66-5.59-1.26-7.21-3.41-1.4-6.86-2.94-10.44-3.64-14.81-2.87-29.63-5.73-44.54-8.06-38.49-6.02-77.17-9.83-116.2-8.16-8.19.35-16.35,1.61-24.52,2.46,10.68,1.68,21.29,2.2,31.79,3.48,26.47,3.24,52.89,6.79,79.32,10.32,2.01.27,4.02,1.14,5.84,2.1,2.64,1.42,2.97,3.62.28,5.12-3.75,2.09-7.66,4.14-11.75,5.36-7.45,2.22-15.08,3.83-22.63,5.69h0ZM199.65,280.86c.04.69.08,1.39.12,2.08,3.84.95,7.64,2.51,11.51,2.73,16.03.91,32.08,1.42,48.13,2.06,23.4.93,46.8,1.83,70.2,2.77,1.28.05,2.56.45,3.83.42,5.76-.11,11.53-.1,17.26-.61,1.62-.14,4.26-1.8,4.37-2.95.15-1.64-1.19-4.38-2.62-5.04-6.21-2.83-12.51-6.04-19.12-7.33-26.35-5.15-53.1-5-79.78-4.22-11.64.34-23.48.08-34.78,4.21-6.25,2.29-12.75,3.94-19.12,5.88h0ZM619.34,242.16c.08-.79.15-1.57.23-2.36-2.25-.69-4.46-1.56-6.74-2.03-7.87-1.57-15.72-3.49-23.67-4.31-5.61-.58-11.58-.43-17,.94-6.3,1.6-12.2,4.83-18.23,7.48-4.26,1.86-6.33,5.17-6.27,9.89.09,7.38-.16,14.78.16,22.15.2,4.46.93,8.94,2.04,13.27.41,1.61,2.42,3.73,3.97,3.99,9.66,1.57,19.39,2.7,29.1,3.91,1.43.17,2.89.03,4.33.03.02-.42.04-.86.07-1.28-7.12-1.79-14.32-3.35-21.32-5.54-2.27-.71-5.31-2.82-5.75-4.8-1.88-8.23-3.18-16.64-4.06-25.04-.21-2.06,1.41-5.27,3.17-6.43,8.17-5.36,16.44-10.43,27-9.97,10.97.48,21.98.11,32.98.11h0ZM632.54,213.55c.13-7.22-4.53-12.09-11.77-12.32-8.07-.26-13.32,4.6-13.33,12.33,0,6.85,5.57,12.75,12.26,12.99,7.46.26,12.69-5.04,12.82-13h0ZM853.23,224.49c.16.59.33,1.18.49,1.77,5.93-.84,11.42-.14,12.4,6.67,1.61,11.11.94,22.06-4.83,32.15-1.2,2.08-2.29,4.23-3.65,6.76,4.97.5,7.47-.98,8.12-5.11,2.03-12.83,4.22-25.65,5.97-38.52.37-2.71-.48-5.78-1.52-8.39-.46-1.17-3.22-2.61-4.17-2.19-4.42,1.95-8.57,4.52-12.81,6.85v.02ZM844.92,212.45c5.04,1.22,7.28-.49,7.21-5.15-.03-2.56.25-5.16-.14-7.66-.27-1.79-1.41-3.46-2.16-5.19-1.64,1.49-4.43,2.79-4.69,4.49-.68,4.32-.22,8.82-.22,13.51h0Z"/>
      <path d="M589.45,149.32c8.51-1.22,16.84.39,24.89,2.9,7.01,2.19,13.89,5.04,20.46,8.32,3.1,1.54,5.97,4.4,7.84,7.36,2.4,3.82-.06,8.43-4.59,8.98-7.47.91-15.01,1.3-22.53,1.78-1.04.07-2.13-.63-3.2-.96-.02-.41-.03-.83-.05-1.24,3.77-1.45,7.61-2.75,11.28-4.44,1.42-.66,2.43-2.19,3.64-3.32-1.06-1.1-1.93-2.67-3.23-3.21-10.04-4.21-20.18-8.2-30.26-12.31-1.65-.68-3.18-1.61-4.78-2.43l.55-1.43h0Z"/>
      <path d="M420.42,313.23c-5.91-7.05-7.97-15.45-8.94-24.06-2.14-18.96,1.19-36.92,11.75-53.03,6.56-10.01,15.4-17.17,27.69-19.17,12.38-2.03,28.18,6.95,33.45,19.73-3.12-2.57-5.53-4.8-8.18-6.71-14.08-10.11-31.3-7.8-43.66,6.01-10.49,11.71-15.59,25.76-16.58,41.25-.73,11.58-.56,23.18,4.29,34.13.23.53.12,1.23.16,1.83h0Z"/>
    </g>
    <g>
      <path d="M550.66,417.13c2.82-.04,5.47-.11,8.12-.11,9.11,0,18.22.03,27.33.04,4.27,0,8.54-.07,12.81-.03,1.79.02,3.6.12,5.38.36,2.54.34,5.09.5,7.64.68,9.65.65,18.64,3.35,26.56,9.08,7.09,5.13,11.7,12.06,14.32,20.35.37,1.16.55,2.42.58,3.63.08,3.22.02,6.45.04,9.68.01,2.02-.36,3.98-1.13,5.83-.8,1.92-1.56,3.9-2.64,5.66-4.9,7.96-11.32,14.21-20.25,17.55-1.86.69-3.7,1.47-5.56,2.18-1.12.43-1.29,1.24-1.06,2.33,1.06.71,2.32.81,3.49,1.1,2.3.58,4.62,1.04,6.92,1.63,8.31,2.14,15.32,6.49,21.15,12.75,5.59,6.01,8.46,13.15,8.78,21.37.28,7.31-.72,14.38-3.48,21.17-3.73,9.16-10.1,15.93-18.72,20.66-6.48,3.56-13.45,5.6-20.71,6.76-3.39.54-6.79.68-10.21.68-13.29.04-26.57.11-39.86.13-6.07,0-12.15-.08-18.22-.14-.75,0-1.5-.1-2.16-.14-.68-.85-.46-1.74-.46-2.56-.04-7.02-.07-14.05-.07-21.07,0-44.42,0-88.83-.02-133.24,0-2.13.42-4.13,1.43-6.32h0ZM570.33,499.46c-.56,1.53-.43,2.77-.44,3.99-.03,15.19-.07,30.37-.07,45.56,0,6.07.05,12.15.13,18.22.01,1.1-.22,2.27.43,3.24.28.07.47.15.65.15,10.25.05,20.5.54,30.74.01,4.36-.23,8.73-.6,12.97-1.67,11.61-2.93,19.7-9.9,23.68-21.28,2.52-7.21,2.4-14.54.22-21.84-1.74-5.84-4.58-11.03-9.17-15.14-8.04-7.19-17.6-10.8-28.25-11.19-9.2-.33-18.41-.05-27.62-.04h-3.28,0ZM571.04,428.97c-.15.55-.28.81-.28,1.08-.03,18.97-.05,37.95-.05,56.92,0,.37.12.74.21,1.23.66.09,1.29.27,1.94.27,10.06,0,20.11,0,30.16-.08,1.5-.01,3.04-.21,4.5-.58,5.41-1.38,10.18-4,14.47-7.59,8.76-7.35,12.97-21.48,8.57-32.89-4.01-10.41-14.87-18.37-26.08-18.44-10.15-.07-20.3-.02-30.45-.02-.94,0-1.87.07-2.98.11h0Z"/>
      <path d="M116.15,517.61c-1.93-3.31-2.31-6.32-.18-9.53.67-.06,1.41-.18,2.15-.18,12.91-.01,25.82,0,38.74,0,.47,0,.96-.02,1.42.02,1.5.16,2.37,1.09,2.44,2.61.04.76.01,1.52.01,2.28v55.55c0,2.94.02,5.89.02,8.83,0,.66-.05,1.32-.08,1.89-.84,1.04-1.86,1.45-3.06,1.45-4.55.02-9.11.09-13.67.07-1.7,0-2.43-.61-2.76-2.29-.21-1.1-.14-2.26-.15-3.38-.01-.92.39-1.89-.4-2.81-1.19-.12-2.37.21-3.53.6-.9.3-1.8.61-2.65,1.03-7.22,3.52-14.91,5.53-22.74,7.15-3.92.81-7.85,1.25-11.86,1.22-7.97-.05-15.95-.1-23.92.02-7.03.11-13.76-1.27-20.38-3.45-10.39-3.42-19.8-8.61-28.24-15.58-3.09-2.56-5.78-5.48-8.26-8.62-9.63-12.26-15.66-26.13-18.31-41.48-.18-1.03-.3-2.07-.33-3.11-.15-5.98-.25-11.96-.4-17.94-.62-24.76,14.31-49.94,35.2-62.42,8.96-5.35,18.58-8.99,28.68-11.46,3.53-.86,7.05-1.36,10.68-1.44,2.26-.05,4.52-.49,6.78-.75,3.59-.4,7.18-.76,10.79-.43,4.63.42,9.26.87,13.9,1.22,9.41.71,18.2,3.61,26.65,7.6,9.8,4.62,18.01,11.23,24.37,20.04.77,1.07,1.41,2.24,2.02,3.42.48.93.71,1.96.33,3.01-4.8.71-11.98.52-15.08-.42-.17-.23-.43-.5-.61-.83-3.22-5.68-7.84-9.96-13.35-13.35-5.95-3.67-12.4-6.13-19.16-7.82-4.88-1.22-9.81-2.25-14.82-2.71-4.45-.41-8.9-.49-13.35.18-3,.45-6.04.63-9.03,1.16-19.15,3.46-33.42,13.72-42.74,30.83-3.67,6.74-5.89,13.97-7.29,21.47-1.45,7.78-2.07,15.62-1.7,23.52.43,9.44,1.92,18.7,5.29,27.56,7.43,19.57,21.17,32.47,41.19,38.63,6.1,1.88,12.31,3.16,18.73,3.21,4.93.04,9.87.09,14.81.07,4.96-.02,9.81-.83,14.6-2.15,7.36-2.04,14.44-4.69,20.81-8.98,3.97-2.68,3.27-1.7,3.3-6.11.07-8.35.11-16.71.11-25.06,0-3.04-.15-6.07-.24-9.11,0-.28,0-.57-.04-.85-.18-1.51-.84-2.21-2.37-2.27-2.37-.1-4.74-.14-7.12-.15-4.08,0-8.16.04-12.25.06h-2.97,0Z"/>
      <path d="M838.01,579.33c-3.89.82-17.2.63-21.48-.34-.45-.87-.98-1.86-1.46-2.87-3.71-7.9-7.41-15.8-11.1-23.72-1.8-3.87-3.55-7.76-5.32-11.65-1.3-2.85-2.59-5.7-4.84-8.25-25.88-.17-51.87-.17-78.02,0-.49.92-1.04,1.8-1.45,2.73-3.21,7.19-6.41,14.38-9.58,21.59-2.86,6.51-5.65,13.06-8.49,19.58-.45,1.04-.99,2.05-1.45,3.02-2.1.46-6.3.52-9.85.14.04-.52-.03-1.06.12-1.56.33-1.09.71-2.16,1.16-3.21,10.29-24.28,20.6-48.55,30.87-72.84,11.05-26.13,22.05-52.26,33.08-78.4.33-.78.65-1.58.95-2.38.47-1.27,1.37-2.02,2.7-2.25.47-.08.94-.2,1.41-.2,2.37.02,4.74.06,7.12.12,1.45.04,2.44.69,3.07,2.1,1.54,3.47,3.22,6.87,4.81,10.32,18.58,40.01,37.15,80.02,55.74,120.03,3.36,7.22,6.82,14.41,10.18,21.63.72,1.54,1.27,3.16,1.81,4.78.17.5.02,1.1.02,1.63h0ZM789.26,521.97c-.17-.74-.23-1.5-.51-2.17-.9-2.19-1.83-4.37-2.82-6.52-9.44-20.49-18.9-40.97-28.36-61.44-.96-2.06-2.05-4.06-3.12-6.07-.24-.46-.65-.84-1.13-1.45-.65.96-1.24,1.7-1.67,2.52-.75,1.42-1.45,2.88-2.08,4.36-8.77,20.58-17.54,41.15-26.28,61.74-1.03,2.44-1.91,4.95-2.82,7.44-.18.5-.18,1.07-.27,1.62,3.83.49,65.59.47,69.06-.03h0Z"/>
      <path d="M205.86,580.44c-.6-2.17-.65-4.16-.65-6.14.01-5.5.06-11.01.05-16.52,0-32.08-.04-64.17-.02-96.25,0-13.1.11-26.2.18-39.29,0-1.32.07-2.63.11-3.9,2.2-.46,15.8-.58,19.28-.2.87.98,1.23,2.23,1.3,3.58.05.95.02,1.9.02,2.85-.01,36.83-.02,73.66-.02,110.49,0,9.78.04,19.55.05,29.33v2.67c.8.1,1.43.24,2.06.25,3.98.04,7.97.07,11.96.07,21.16.02,42.33.03,63.5.04.76,0,1.52-.01,2.28.03,1.81.11,3.03,1.06,3.57,2.77.26.8.4,1.67.41,2.51,0,1.51-.08,3.04-.23,4.55-.26,2.46-.99,3.15-3.42,3.18-4.17.07-8.35.11-12.53.11-28.47.01-56.95,0-85.42,0-.75,0-1.5-.07-2.48-.12h0Z"/>
      <path d="M980.61,568.47c.17.4.3.56.31.74.15,2.27.33,4.54.42,6.82.03.74-.12,1.52-.32,2.24-.47,1.73-1.23,2.32-3.06,2.34-2.28.03-4.55-.04-6.83-.03-7.69,0-15.38.04-23.06.04-17.47,0-34.93-.02-52.4-.04-4.84,0-9.68-.04-14.52-.06-.76,0-1.53.03-2.27-.08-1.15-.16-2.03-1.15-2.12-2.32-.05-.56-.02-1.14-.02-1.71-.01-51.36-.02-102.71-.02-154.07,0-.57-.02-1.14.02-1.71.12-1.64,1.07-2.58,2.71-2.67.57-.03,1.14-.02,1.71-.02,4.55.01,9.11.02,13.67.04.66,0,1.32.07,1.93.11.78.74.53,1.64.53,2.46.05,6.45.11,12.91.11,19.36.02,28.76.03,57.52.04,86.29,0,12.06-.02,24.11-.03,36.16,0,.57-.02,1.14,0,1.71.04.83-.22,1.74.51,2.42.91.85,1.9,1.6,3.19,1.75.66.08,1.33.05,1.99.05,13.86,0,27.72-.03,41.57-.02,11.49,0,22.97.05,34.46.08.47,0,.94.06,1.51.09h0Z"/>
      <path d="M420.52,407.81c26.26,0,48,8.96,66.2,26.45,14.56,13.99,23.38,31.14,27.01,50.95,1.84,10.06,2.17,20.23.61,30.33-2.94,18.96-10.72,35.69-23.76,49.88-12.66,13.78-28.06,23.05-46.19,27.72-5.89,1.52-11.88,2.44-17.98,2.68-3.51.14-7,.28-10.53.11-10.54-.53-20.62-2.97-30.34-7.01-28.55-11.87-49.59-37.54-55.74-67.84-1.94-9.56-2.54-19.2-1.5-28.89,1.98-18.49,8.8-35.02,20.47-49.54,14.72-18.31,33.83-29.21,56.78-33.62,1.4-.27,2.81-.48,4.23-.58,3.89-.27,7.77-.46,10.74-.63ZM335.29,502.48c.12,4.58.43,9.59,1.32,14.56,3.13,17.29,10.65,32.38,22.88,44.99,14.24,14.69,31.56,23.38,51.93,25.85,7.77.94,15.54.86,23.27-.28,9.56-1.41,18.58-4.52,27.11-9.06,24.1-12.83,42.94-37.8,45.66-68.7,1.15-13.13-.55-25.97-5.16-38.34-10.56-28.39-37.29-52.73-73.08-55.93-10.43-.94-20.67-.05-30.72,2.75-35.02,9.79-63.02,41.51-63.22,84.16h0Z"/>
      <path d="M421.31,576.17c-28.58-.21-53.98-16.47-66.35-42.08-5.43-11.24-7.96-23.13-7.31-35.59,1.86-35.87,26.96-61.84,56.59-68.92,37.62-8.99,72.57,12.15,85.59,43.91,3.9,9.52,5.89,19.43,5.69,29.71-.64,34.2-24.65,63.51-57.59,71-5.59,1.27-11.23,1.8-16.62,1.98h0ZM358.09,481.67c2.43,2.82,8.38,8.5,10.69,10.37.79.64,1.56.9,2.59.78,7.44-.83,14.88-1.65,22.27-2.96,3.83-.68,7.3-1.91,10.28-4.46,1.96-1.68,4.29-2.77,6.71-3.64,5.21-1.88,10.57-2.11,16-1.44,4.59.57,8.85,2.04,12.59,4.88.53.4,1.11.73,1.66,1.09,2.33,1.53,4.86,2.56,7.64,2.9.56.07,1.12.2,1.68.3,6.62,1.23,13.24,2.43,19.98,2.82,1.85.11,3.31-.27,4.66-1.52,2.86-2.63,5.8-5.18,8.69-7.79.47-.43.88-.94,1.25-1.35-6.65-23.07-31.13-48.08-66.07-46.52-14.77.66-27.97,5.69-39.36,15.17-10.09,8.39-17.18,18.83-21.26,31.36h0ZM471.61,497.32c-.97-.21-1.77-.44-2.6-.55-1.88-.26-3.76-.46-5.65-.68-5.84-.68-11.64-1.66-17.38-2.96-2.71-.62-5.22-1.67-7.55-3.21-1.34-.89-2.71-1.74-4.09-2.58-1.96-1.2-4.05-2.13-6.36-2.32-2.74-.22-5.49-.45-8.23-.45-4.98,0-9.56,1.37-13.48,4.57-3.09,2.53-6.67,3.86-10.54,4.68-6.51,1.39-13.1,2.15-19.7,2.81-1.48.15-2.97.24-4.31.72-.39,3.41-.34,8.25.11,10.57,1.8.21,3.67.4,5.53.66,3.94.56,7.9,1.03,11.81,1.76,3.83.72,7.5,2.05,10.89,4.02,3.53,2.05,5.82,4.95,6.76,9.04,1.74,7.59,3.1,15.24,4,22.97.18,1.58.45,3.15.66,4.67,2.99.55,15.1.59,18.68.09.13-.5.33-1.03.4-1.59.44-3.67.81-7.36,1.28-11.02.69-5.46,1.68-10.87,2.93-16.23.49-2.08,1.53-3.86,3.03-5.39,1.83-1.86,3.95-3.3,6.35-4.24,2.82-1.1,5.69-2.12,8.61-2.91,5.14-1.39,10.42-1.98,15.73-2.34,1-.07,2.11.21,3.09-.75.12-3,.12-6.11,0-9.34h.01ZM442.77,565.05c8.71-2.97,16.16-7.39,22.76-13.27,8.3-7.4,14.44-16.28,18.34-26.72.61-1.64.47-2.91-.67-4.16-.39-.42-.7-.91-1.1-1.3-1.43-1.39-2.86-2.77-4.33-4.11-1.53-1.4-3.11-2.75-4.74-4.2-2.85.24-5.69.41-8.51.74-5.28.62-10.49,1.66-15.54,3.37-2.25.77-4.42,1.71-6.39,3.08-2.12,1.47-3.48,3.41-3.92,6.02-.64,3.74-1.52,7.44-2.07,11.19-.7,4.78-1.16,9.61-1.74,14.41-.15,1.26.02,2.43.61,3.57,2.04,3.98,4.73,7.53,7.32,11.37h0ZM400.19,564.76c1.31-1.91,2.65-3.85,3.96-5.82.68-1.03,1.28-2.1,1.89-3.17.77-1.35,1.16-2.75.93-4.35-.27-1.88-.33-3.78-.52-5.66-.74-7.08-2.21-14.03-3.63-21-.57-2.8-1.98-4.94-4.38-6.33-1.71-.99-3.53-1.85-5.4-2.49-6.88-2.33-14-3.24-21.24-3.48-1.13-.04-1.98.31-2.79,1.09-3,2.89-6.06,5.73-9.08,8.61-.4.38-.72.84-1.02,1.19,6.19,21.17,25.5,37.19,41.26,41.42h0ZM431.35,555.98c-6.16,0-12.31.01-18.46-.01-1.06,0-1.77.48-2.41,1.25-1.96,2.33-3.59,4.88-4.81,7.68-.21.47-.28,1.01-.45,1.65,10.96,2.84,21.7,2.44,32.48.05-.8-2.68-3.28-6.83-6.35-10.6h0ZM356.76,487.35c-.25.91-.53,1.59-.61,2.3-.33,2.72-.64,5.46-.86,8.19-.53,6.38.17,12.68,1.5,18.92.08.4.41.74.68,1.22.63-.44,1.13-.71,1.54-1.09,2.43-2.25,4.84-4.53,7.26-6.79.61-.56.79-1.25.78-2.05-.01-3.32-.03-6.64.01-9.95.01-1.02-.3-1.83-1.04-2.52-2.57-2.39-5.11-4.8-7.69-7.18-.4-.37-.91-.62-1.58-1.07h0ZM486.18,487.19c-.26.08-.58.09-.77.26-2.86,2.47-5.7,4.96-8.55,7.44-.54.47-.75,1.07-.75,1.76,0,3.4,0,6.8.05,10.21,0,.52.2,1.19.56,1.53,2.8,2.68,5.65,5.3,8.51,7.91.22.2.66.15.98.21,2.43-7.84,2.05-23.68-.03-29.31h0Z"/>
      <path d="M421.65,519.94c-8.41.05-15.6-7.06-15.71-15.55-.11-8.52,6.9-15.83,15.29-15.97,7.21-.12,15.97,5.43,16.03,15.84.05,8.62-7.45,15.78-15.61,15.68h0ZM420.91,515.48c6.78.17,11.85-4.62,12.06-11.3.17-5.26-4.3-11.22-11.17-11.42-6.55-.19-11.15,4.61-11.49,11.26-.31,6.08,4.61,11.31,10.6,11.46h0Z"/>
    </g>
    <g>
      <path d="M453.04,652.87h-8.29c-.41-.53-.89-1.11-1.32-1.71-.55-.78-1.08-1.57-1.58-2.38-4.06-6.54-10.13-10.21-17.45-11.88-8.01-1.82-15.69-.74-22.91,3.29-3.64,2.03-6.62,4.78-9.11,8.09-2.19,2.92-3.8,6.14-5.03,9.56-.71,1.98-1.15,4.02-1.16,6.14-.02,3.52-.17,7.04-.08,10.56.16,6.67,2.29,12.67,6.39,17.97,4.58,5.91,10.63,9.4,17.85,10.97,6.49,1.41,12.87.89,19.06-1.52,5.48-2.13,9.9-5.6,13.09-10.58,3.02-4.73,5.02-9.81,5.42-15.45.02-.38.03-.76.01-1.14,0-.18-.08-.36-.18-.74-.65-.08-1.38-.24-2.11-.25-6.09-.03-12.18-.02-18.27-.04-3.61-.01-7.23-.05-10.85-.1-.66,0-1.32-.11-2.06-.18-.64-1.59-.3-3.17-.23-4.71.91-.71,1.89-.45,2.81-.46,7.23-.04,14.47-.04,21.7-.04,4.66,0,9.33.01,13.99.02.48,0,.95-.01,1.43,0,1.99.08,2.45.4,2.46,2.32.01,2.38.05,4.79-.36,7.12-2.13,12.28-8.39,21.91-19,28.54-4.84,3.02-10.17,4.6-15.9,4.94-4.1.24-8.17.29-12.22-.49-11.85-2.3-20.61-8.89-26.64-19.24-1.78-3.05-3.14-6.31-4.08-9.71-.42-1.54-.7-3.17-.74-4.78-.1-4.47-.14-8.95.01-13.41.06-1.88.5-3.77,1.01-5.59,2.35-8.29,6.74-15.3,13.51-20.68,4.91-3.91,10.41-6.67,16.69-7.59,2.16-.32,4.36-.42,6.54-.42,3.33,0,6.66.18,9.98.29,1.82.06,3.59.4,5.31,1.02,9.66,3.5,16.92,9.68,21.38,19.02.44.92,1.02,1.83.91,3.26h0Z"/>
      <path d="M353.63,630c2.27-.63,4.43-.5,6.8-.42.1.81.27,1.53.28,2.25.08,6.38.18,12.75.18,19.13.01,18.66-.01,37.32-.02,55.98v2.95c-.65.17-1.17.41-1.7.42-1.62.04-3.24-.08-4.85-.02-1.41.04-2.27-.6-2.99-1.75-1.62-2.58-3.33-5.1-5-7.65-11.65-17.74-23.31-35.47-34.97-53.21-.77-1.18-1.59-2.32-2.35-3.44-.84.23-.67.8-.73,1.2-.53,3.48-.9,6.97-.89,10.51.04,16.85.02,33.7.02,50.55,0,1.13-.03,2.27-.04,3.48-2.19.57-4.23.4-6.42.15-.1-.71-.26-1.35-.26-1.99,0-3.72.05-7.42.05-11.14-.03-13.13-.11-26.28-.1-39.41.01-8.47.15-16.95.26-25.41,0-.76.09-1.51.14-2.36,2.11-.62,4.19-.29,6.23-.08.54.05,1.12.68,1.5,1.18,1.32,1.75,2.6,3.52,3.8,5.35,12.36,18.87,24.7,37.75,37.04,56.62.26.4.53.79.77,1.2.54.92,1.32,1.3,2.42,1.12.59-.73.39-1.61.39-2.44.01-8.66-.04-17.33,0-25.99.05-11.42.18-22.85.29-34.27,0-.85.11-1.69.17-2.55h0Z"/>
      <path d="M834.1,670.03c0-2.19.03-4.38,0-6.56-.04-2.12.4-4.14,1.04-6.16,2.2-7.05,5.84-13.21,11.25-18.25,5.64-5.26,12.28-8.54,19.96-9.68,2.64-.39,5.26-.78,7.94-.72,17.36.36,31.74,11.02,37.01,27.56,3.36,10.54,3.07,21.03-1.21,31.25-4.29,10.24-11.68,17.39-22.08,21.44-3.78,1.47-7.63,2.33-11.67,2.31-3.04-.01-6.1.01-9.13-.2-1.78-.13-3.56-.59-5.29-1.08-5.29-1.48-10.04-4.02-14.3-7.5-3.27-2.67-6-5.82-8.07-9.52-1.96-3.5-3.47-7.2-4.73-10.99-.41-1.24-.54-2.61-.62-3.93-.15-2.66-.18-5.32-.26-7.98h.18,0ZM905.18,670.13c-.01-4.94-.84-9.53-2.53-13.95-3.41-8.94-9.47-15.26-18.54-18.52-5.29-1.89-10.72-2.52-16.28-1.41-10.49,2.08-18.3,7.78-22.79,17.55-4.69,10.19-4.76,20.61-.77,31.06,5.85,15.33,22.77,22.8,37.22,18.71,8.85-2.51,15.58-7.73,19.71-16.09,2.7-5.47,4.01-11.25,3.98-17.35h0Z"/>
      <path d="M14.87,709.79c-.4-5.68-.15-77.01.27-79.88.3-.08.65-.24,1.01-.25,5.81-.09,11.6-.17,17.41-.23,5.05-.06,10.08.21,15.06,1.08,4.72.82,9.24,2.28,13.44,4.57,8.73,4.73,14.2,12.14,17.25,21.47.93,2.83,1.25,5.76,1.49,8.7.53,6.31.24,12.57-1.52,18.67-2.74,9.51-8.4,16.72-17.21,21.39-5.72,3.03-11.83,4.6-18.25,5.2-8.36.79-16.72.64-25.1.46-1.35-.03-2.66-.19-3.86-1.17ZM22.86,703.59c.79.07,1.63.18,2.48.19,5.61.04,11.24.12,16.85.05,6.03-.07,11.64-1.76,16.78-4.89,3.89-2.37,7.04-5.5,9.32-9.47,2.76-4.8,4.23-9.97,4.19-15.52-.02-3.33-.05-6.67-.17-10-.05-1.42-.23-2.85-.57-4.23-.82-3.24-2.12-6.31-3.89-9.16-3.16-5.08-7.44-8.87-12.98-11.18-3.54-1.48-7.23-2.48-11.06-2.54-6.85-.1-13.71.02-20.55.08-.24,0-.49.22-.89.4-.02,1.01-.05,2.04-.05,3.08-.03,10.47-.08,20.95-.07,31.42.01,9.33.08,18.66.15,27.99.01,1.21-.2,2.48.47,3.77h0Z"/>
      <path d="M819.71,670.34c0,2.76.02,5.52,0,8.28-.02,1.82-.38,3.58-.97,5.31-3.73,10.86-10.46,19.09-20.99,24.02-4.46,2.08-9.12,3.29-14.06,3.26-3.14-.02-6.29.02-9.42-.15-2.86-.16-5.62-.99-8.26-2.11-12.8-5.41-20.95-14.81-24.11-28.41-.21-.92-.35-1.88-.36-2.82-.03-5.14-.06-10.28.03-15.42.03-1.5.29-3.04.73-4.48,3.82-12.61,11.81-21.51,23.95-26.66,2.58-1.1,5.3-1.63,8.06-1.67,4.85-.07,9.71.05,14.56.13,1.73.02,3.4.43,5.01,1.05,12.49,4.84,20.93,13.55,25.02,26.35.48,1.52.74,3.16.81,4.76.13,2.85.04,5.71.04,8.57h-.02ZM748.89,670.98c-.07,3.95.77,8.53,2.44,12.93,6.55,17.21,22.73,23.3,37.17,19.78,9.51-2.32,16.32-8.13,20.3-16.93,5.64-12.46,4.92-24.79-1.94-36.65-1.08-1.88-2.44-3.68-3.99-5.17-8.05-7.72-17.68-10.62-28.6-8.5-8.97,1.74-15.84,6.69-20.41,14.69-3.38,5.92-4.99,12.3-4.97,19.87h0Z"/>
      <path d="M130.94,675.69c-.52,1.77.02,3.08.73,4.34.88,1.58,1.81,3.13,2.74,4.67,4.54,7.48,9.09,14.96,13.63,22.44.49.8.94,1.63,1.45,2.51-2.58,1.84-5.29,1.74-8.02,1.05-.65-.17-1.3-.82-1.72-1.41-1.1-1.55-2.13-3.15-3.09-4.79-4.82-8.2-9.59-16.43-14.41-24.63-1.67-2.83-1.71-2.87-4.89-2.94-3.23-.07-6.47-.04-9.71,0-1.48.02-1.8.28-2.11,1.77-.24,1.2-.37,2.45-.38,3.67-.02,8.19,0,16.37.02,24.55v3.13c-1.59.93-3.17,1.13-4.78.96-2.11-.21-2.78-.98-2.78-3.11,0-5.04.04-10.09.05-15.13,0-19.32,0-38.64,0-57.96,0-.67-.01-1.33,0-2,.06-2.28,1.02-3.31,3.29-3.32,5.9-.02,11.8.01,17.7.02,3.33,0,6.66-.17,9.97.38,4.89.8,9.38,2.55,13.12,5.84,4.63,4.07,7.54,9.02,7.29,15.44-.05,1.42.03,2.86-.02,4.28-.04,1.04-.11,2.1-.33,3.11-1.82,8.03-6.95,13.09-14.43,16.01-.53.21-1.08.35-1.63.52-.54.17-1.08.36-1.69.56h-.02ZM106.54,636.9c-.78.93-1.19,1.96-1.24,3.14-.05,1.42-.14,2.85-.15,4.28-.01,5.89,0,11.79,0,17.68,0,1.33-.06,2.66-.03,4,.04,1.43.27,2.82,1.44,4h8.81c2.76,0,5.51.05,8.27-.04,2.78-.09,5.49-.67,7.99-1.91,5.45-2.69,8.72-6.94,8.85-13.21.04-1.9.03-3.81-.14-5.7-.1-1.11-.36-2.29-.88-3.26-2.97-5.48-7.41-8.87-13.84-9-5.99-.13-11.98-.08-17.97-.1-.37,0-.74.08-1.14.12h.02Z"/>
      <path d="M672.55,672.51c-.04,1.38-.11,2.42-.11,3.45-.02,9.43-.02,18.86-.04,28.28,0,1.62-.03,3.24-.08,4.85-.02.55-.13,1.1-.21,1.82-2.38.23-4.64.15-6.87.06-1.02-.82-1.29-1.92-1.38-3.07-.05-.66-.03-1.33-.03-2,0-23.71,0-47.42,0-71.13,0-1.83-.03-3.64,1.48-5.19,2.16-.19,4.4-.15,6.63.36.52,1.08.38,2.15.39,3.17.04,6.95.05,13.9.07,20.85,0,3.05,0,6.1.02,9.14,0,.83.1,1.67.17,2.66,3.82.39,7.51.17,11.19.23,3.62.07,7.23.07,10.85.07s7.42-.02,11.14-.06c3.6-.04,7.21.06,10.85-.24.6-1.04.39-2.11.39-3.12.02-8.38.01-16.76.01-25.14v-6.64c2.2-.7,4.25-.35,6.25-.29.72.8.47,1.7.47,2.52.02,7.04.01,14.09.01,21.14,0,17.52,0,35.04-.01,52.56,0,1.02.2,2.08-.27,3.19-2.02.55-4.07.22-6.14.17-.48-1.2-.3-2.25-.3-3.27-.02-10.38-.02-20.76-.04-31.14,0-.94-.05-1.89-.07-2.72-1-.72-1.99-.56-2.92-.58-3.33-.08-6.66-.16-10-.16-9.23,0-18.47.04-27.71.07-1.13,0-2.26.08-3.77.13h0Z"/>
      <path d="M645.47,687.09c.27,1.67-.27,2.92-.73,4.14-.74,1.98-1.83,3.76-3.16,5.4-6.24,7.68-14.08,12.69-23.95,14.27-1.22.2-2.46.3-3.7.31-3.99.02-7.98.21-11.96-.45-11.78-1.95-25.42-11.08-30.06-27.01-3.41-11.72-2.65-23.18,2.84-34.15,5.06-10.12,13.43-16.31,24.1-19.58,1.17-.36,2.44-.48,3.66-.5,4.66-.08,9.32-.11,13.99-.08,3.37.02,6.59.81,9.66,2.21,8.17,3.72,14.5,9.35,18.43,17.52.41.85.73,1.76,1.04,2.65.09.25.01.55.01,1.04-1.53.04-3.04.11-4.55.11-1.23,0-2.45-.07-3.67-.1-.55-.83-1.01-1.54-1.49-2.24-.93-1.32-1.83-2.67-2.82-3.95-5.57-7.17-13.13-10.42-21.99-11.01-4.33-.29-8.56.36-12.6,1.94-9.63,3.76-15.59,10.9-18.65,20.62-.83,2.64-1.23,5.37-1.39,8.14-.3,5.16-.15,10.27,1.32,15.28.92,3.12,2.23,6.06,3.89,8.86,2.7,4.56,6.48,7.91,11.19,10.29,4.3,2.17,8.89,3.39,13.65,3.87,1.67.17,3.41-.17,5.1-.42,3.79-.55,7.42-1.66,10.85-3.36,3.82-1.9,7.03-4.5,9.4-8.1,1.05-1.58,2.24-3.08,3.36-4.61.61-.83,1.42-1.18,2.44-1.24,1.89-.11,3.78-.29,5.79.16h-.02Z"/>
      <path d="M554.43,647.78c-2.31.45-4.55.15-6.92.05-.44-.73-.89-1.44-1.3-2.17-1.57-2.78-3.61-5.14-6.23-6.97-2.88-2.02-6.06-3.17-9.62-3.03-2.08.08-4.17-.13-6.24.44-6.48,1.77-10.49,5.91-12.06,12.41-.36,1.49-.29,3.02.13,4.52,1.07,3.75,3.24,6.63,6.63,8.57,2.91,1.66,6.03,2.81,9.22,3.79,3.19.97,6.39,1.87,9.57,2.84,3.19.97,6.31,2.15,9.2,3.83,4.95,2.88,8.28,7.09,9.41,12.69,1.18,5.81.32,11.42-3.26,16.33-4.64,6.38-10.87,9.97-18.88,10.11-3.04.05-6.11.18-9.13-.07-7.18-.59-13.1-3.74-17.61-9.38-2.32-2.91-3.61-6.25-3.51-10.03.01-.37.11-.73.18-1.18,2.4-.61,4.75-.07,7.09-.12.31.53.57.92.77,1.34.41.86.8,1.73,1.17,2.6,2.57,5.94,7.28,9.17,13.46,10.29,4.29.77,8.54.33,12.56-1.55,2.27-1.06,4.23-2.52,5.92-4.39,4.29-4.76,3.99-11.85,1.35-16.27-1.05-1.76-2.49-3.11-4.25-4.14-2.8-1.66-5.81-2.85-8.91-3.76-3.28-.97-6.61-1.8-9.87-2.85-2.53-.81-5.05-1.71-7.45-2.82-1.8-.83-3.48-1.96-5.08-3.14-4.33-3.21-6.59-7.59-6.72-12.96-.06-2.55.15-5.14.49-7.67.17-1.28.77-2.55,1.39-3.72,3.11-5.86,7.98-9.59,14.3-11.44.99-.29,2.06-.45,3.09-.45,4.28-.03,8.57,0,12.85.04,2.03.02,3.92.56,5.77,1.42,3.49,1.62,6.7,3.62,9.23,6.56,2.26,2.61,3.57,5.6,3.48,9.11-.01.36-.13.73-.21,1.18h0Z"/>
      <path d="M189.21,629.84c2.33-.44,4.67-.35,7.2-.09.41.94.85,1.88,1.23,2.84,5.28,13.06,10.04,26.31,14.81,39.56,2.87,7.97,5.75,15.93,8.63,23.89.35.97.76,1.92,1.19,3.01.95-.13,1.77-.24,2.52-.35.23-.52.41-.86.52-1.22,4-12.62,8.95-24.89,13.58-37.28,2.83-7.57,5.59-15.18,8.41-22.76.73-1.96,1.57-3.88,2.38-5.81.67-1.6,1.91-2.32,3.62-2.21,1.31.09,2.66-.05,3.99.55.16,2.04-.15,3.97-.87,5.86-3.48,9.16-6.91,18.34-10.37,27.51-5.25,13.88-10.5,27.77-15.75,41.65-.67,1.77-1.32,3.56-2.54,5.24-2.99.17-6.01.15-9-.13-.93-1.16-1.23-2.48-1.7-3.7-5.92-15.67-11.8-31.34-17.74-47.01-2.76-7.29-5.64-14.55-8.44-21.83-.58-1.51-1.08-3.05-1.55-4.6-.3-.99-.6-2.01-.13-3.15h0Z"/>
      <path d="M937.97,704.5c2.43.54,4.71.26,6.97.31,2.38.05,4.76.02,7.14.01,2.29,0,4.57-.02,6.85-.02h6.98c.74,1.68.74,3.33.75,5.19-.96.1-1.79.24-2.61.25-7.8.07-15.61.12-23.41.15-2.76.01-5.52-.04-8.28-.09-.65-.01-1.3-.1-2.11-.17-.08-.83-.2-1.55-.2-2.29-.01-18.84-.02-37.68-.01-56.53,0-6.19.06-12.37.1-18.56,0-.93.08-1.86.13-2.91,2.38-.44,4.6-.75,6.81.22.72,1.26.63,2.61.63,3.92,0,12.37-.07,24.74-.06,37.11.01,9.99.1,19.98.17,29.97,0,1.13.1,2.26.15,3.43h0Z"/>
      <path d="M279.92,710.85c-2.26.35-4.51.24-6.69.11-.92-.95-1.23-2.04-1.31-3.2-.05-.76-.03-1.52-.03-2.29v-70.56c0-.57,0-1.14,0-1.71.01-1.39.47-2.6,1.58-3.68,2.01-.12,4.07-.02,6.32.1.1.99.24,1.82.25,2.64.14,9.71.35,19.42.37,29.13.02,15.52-.08,31.04-.13,46.56,0,.93.14,1.9-.36,2.89Z"/>
      <path d="M167.24,710.11c-.13-.55-.29-.91-.29-1.27.29-26.25-.5-52.51.4-78.85,2.22-.74,4.35-.54,6.66-.18.1.79.25,1.51.26,2.24.13,11.52.31,23.02.35,34.54.05,13.52-.02,27.03-.05,40.54,0,.93.24,1.89-.39,2.95-2.24.38-4.57.17-6.95.03h0Z"/>
    </g>
  </g>
</svg>